<svg width="84" height="46" viewBox="0 0 84 46" fill="none" xmlns="http://www.w3.org/2000/svg">
<mask id="path-1-outside-1_2848_6694" maskUnits="userSpaceOnUse" x="0" y="-0.25" width="84" height="46" fill="black">
<rect fill="white" y="-0.25" width="84" height="46"/>
<path d="M1 13.5H7.25V7.25H13.5V1H32.25V7.25H38.5V13.5H44.75V44.75H32.25V32.25H13.5V44.75H1V13.5ZM19.75 7.25V13.5H13.5V26H32.25V13.5H26V7.25H19.75ZM63.5312 19.6875L63.5 7.25H69.75V19.75H82.25V26H69.75V38.5H63.5V26H51V19.6875H63.5312Z"/>
</mask>
<path d="M1 13.5V12.5H0V13.5H1ZM7.25 13.5V14.5H8.25V13.5H7.25ZM7.25 7.25V6.25H6.25V7.25H7.25ZM13.5 7.25V8.25H14.5V7.25H13.5ZM13.5 1V0H12.5V1H13.5ZM32.25 1H33.25V0H32.25V1ZM32.25 7.25H31.25V8.25H32.25V7.25ZM38.5 7.25H39.5V6.25H38.5V7.25ZM38.5 13.5H37.5V14.5H38.5V13.5ZM44.75 13.5H45.75V12.5H44.75V13.5ZM44.75 44.75V45.75H45.75V44.75H44.75ZM32.25 44.75H31.25V45.75H32.25V44.75ZM32.25 32.25H33.25V31.25H32.25V32.25ZM13.5 32.25V31.25H12.5V32.25H13.5ZM13.5 44.75V45.75H14.5V44.75H13.5ZM1 44.75H0V45.75H1V44.75ZM19.75 7.25V6.25H18.75V7.25H19.75ZM19.75 13.5V14.5H20.75V13.5H19.75ZM13.5 13.5V12.5H12.5V13.5H13.5ZM13.5 26H12.5V27H13.5V26ZM32.25 26V27H33.25V26H32.25ZM32.25 13.5H33.25V12.5H32.25V13.5ZM26 13.5H25V14.5H26V13.5ZM26 7.25H27V6.25H26V7.25ZM1 13.5V14.5H7.25V13.5V12.5H1V13.5ZM7.25 13.5H8.25V7.25H7.25H6.25V13.5H7.25ZM7.25 7.25V8.25H13.5V7.25V6.25H7.25V7.25ZM13.5 7.25H14.5V1H13.5H12.5V7.25H13.5ZM13.5 1V2H32.25V1V0H13.5V1ZM32.25 1H31.25V7.25H32.25H33.25V1H32.25ZM32.25 7.25V8.25H38.5V7.25V6.25H32.25V7.25ZM38.5 7.25H37.5V13.5H38.5H39.5V7.25H38.5ZM38.5 13.5V14.5H44.75V13.5V12.5H38.5V13.5ZM44.75 13.5H43.75V44.75H44.75H45.75V13.5H44.75ZM44.75 44.75V43.75H32.25V44.75V45.75H44.75V44.75ZM32.25 44.75H33.25V32.25H32.25H31.25V44.75H32.25ZM32.25 32.25V31.25H13.5V32.25V33.25H32.25V32.25ZM13.5 32.25H12.5V44.75H13.5H14.5V32.25H13.5ZM13.5 44.75V43.75H1V44.75V45.75H13.5V44.75ZM1 44.75H2V13.5H1H0V44.75H1ZM19.75 7.25H18.75V13.5H19.75H20.75V7.25H19.75ZM19.75 13.5V12.5H13.5V13.5V14.5H19.75V13.5ZM13.5 13.5H12.5V26H13.5H14.5V13.5H13.5ZM13.5 26V27H32.25V26V25H13.5V26ZM32.25 26H33.25V13.5H32.25H31.25V26H32.25ZM32.25 13.5V12.5H26V13.5V14.5H32.25V13.5ZM26 13.5H27V7.25H26H25V13.5H26ZM26 7.25V6.25H19.75V7.25V8.25H26V7.25ZM63.5312 19.6875V20.6875H64.5338L64.5312 19.685L63.5312 19.6875ZM63.5 7.25V6.25H62.4975L62.5 7.25251L63.5 7.25ZM69.75 7.25H70.75V6.25H69.75V7.25ZM69.75 19.75H68.75V20.75H69.75V19.75ZM82.25 19.75H83.25V18.75H82.25V19.75ZM82.25 26V27H83.25V26H82.25ZM69.75 26V25H68.75V26H69.75ZM69.75 38.5V39.5H70.75V38.5H69.75ZM63.5 38.5H62.5V39.5H63.5V38.5ZM63.5 26H64.5V25H63.5V26ZM51 26H50V27H51V26ZM51 19.6875V18.6875H50V19.6875H51ZM63.5312 19.6875L64.5312 19.685L64.5 7.24749L63.5 7.25L62.5 7.25251L62.5313 19.69L63.5312 19.6875ZM63.5 7.25V8.25H69.75V7.25V6.25H63.5V7.25ZM69.75 7.25H68.75V19.75H69.75H70.75V7.25H69.75ZM69.75 19.75V20.75H82.25V19.75V18.75H69.75V19.75ZM82.25 19.75H81.25V26H82.25H83.25V19.75H82.25ZM82.25 26V25H69.75V26V27H82.25V26ZM69.75 26H68.75V38.5H69.75H70.75V26H69.75ZM69.75 38.5V37.5H63.5V38.5V39.5H69.75V38.5ZM63.5 38.5H64.5V26H63.5H62.5V38.5H63.5ZM63.5 26V25H51V26V27H63.5V26ZM51 26H52V19.6875H51H50V26H51ZM51 19.6875V20.6875H63.5312V19.6875V18.6875H51V19.6875Z" fill="black" mask="url(#path-1-outside-1_2848_6694)"/>
</svg>
