<svg width="95" height="40" viewBox="0 0 95 40" fill="none" xmlns="http://www.w3.org/2000/svg">
<path d="M13.7362 0C14.2395 5.18713e-06 14.5751 0.489512 14.6799 0.734266V35.3496C14.6799 35.8741 16.6722 35.8741 16.6722 35.3496V9.96503C16.6722 7.34266 19.713 5.34965 22.1247 5.34965C30.3035 5.34965 34.8124 4.82517 34.8124 6.08392C34.8124 7.13287 33.4492 7.55245 32.0861 9.12587C30.723 10.6993 30.4084 11.8531 30.4084 13.5315V35.979C30.4084 37.9091 29.0453 39.3738 27.2627 39.8601C26.1093 40.1748 9.91943 39.8601 5.97682 39.8601C1.04857 39.8601 0 36.1888 0 34.1958V8.4965C0 6.60839 2.20199 4.61538 2.93598 3.98601C3.66998 3.35664 6.92053 0.944056 7.44481 0.524476C7.9691 0.104895 7.9691 0 8.70309 0C9.29029 0 9.50699 0.489511 9.54194 0.734266V3.88112C10.7303 2.58741 13.2329 0 13.7362 0Z" fill="url(#paint0_linear_2512_1146)"/>
<path d="M33.7638 14.3706C34.198 14.3706 37.0144 16.5734 38.6921 16.5734L48.4437 16.6783C50.7086 16.6783 52.3234 18.4615 52.3234 19.9301C52.3584 25.2098 52.4283 36.1049 52.4283 37.4476C52.4283 38.7902 51.17 39.965 49.9117 39.965H44.0397C43.83 39.965 43.6203 39.7552 43.6203 39.3357V22.6573C43.6203 21.6084 41.5232 21.6084 41.5232 22.6573V37.6573C41.5232 39.2308 40.2649 39.965 39.6358 39.965H33.5541C33.2185 39.965 33.0648 39.6853 33.0298 39.5455V15.1049C33.0298 14.6853 33.1347 14.3706 33.7638 14.3706Z" fill="url(#paint1_linear_2512_1146)"/>
<path d="M64.277 15.8392C64.6965 15.8392 64.9062 16.3636 64.9062 16.7832V37.8671C64.9062 38.7063 63.6479 39.965 62.8091 39.965H55.574C55.2594 39.965 54.84 39.6503 54.84 39.2308V18.6713C54.84 18.4615 63.606 15.8392 64.277 15.8392Z" fill="url(#paint2_linear_2512_1146)"/>
<path d="M85.7726 2.30769C90.9106 2.30769 92.4834 7.97203 92.4834 9.65035C92.4834 11.055 91.8221 11.798 91.6065 12.0031C89.4354 9.77513 86.4024 8.39161 83.0464 8.39161C76.4445 8.39161 71.0927 13.7454 71.0927 20.3496C71.0927 26.9539 76.4445 32.3077 83.0464 32.3077C86.6607 32.3077 89.9004 30.7029 92.0923 28.1668C92.4353 28.3293 93.3223 28.8966 93.3223 30.4196C93.3223 32.3077 93.0077 39.965 87.3455 39.965H74.1336C70.5684 39.965 67.3179 36.9231 67.3179 33.1469V8.6014C67.3179 6.5035 69.7296 2.30769 73.6093 2.30769H85.7726Z" fill="url(#paint3_linear_2512_1146)"/>
<path d="M59.8731 6.81818C62.7042 6.81818 63.8576 8.81119 63.8576 10.8042C63.8576 12.7972 62.2848 14.7902 59.8731 14.7902C57.4614 14.7902 55.8885 12.6923 55.8885 10.8042C55.8885 8.91608 57.0419 6.81818 59.8731 6.81818Z" fill="url(#paint4_linear_2512_1146)"/>
<path d="M83.0469 9.1416C89.234 9.14185 94.25 14.1595 94.25 20.3496C94.25 26.5397 89.234 31.5574 83.0469 31.5576C76.8595 31.5576 71.8428 26.5399 71.8428 20.3496C71.8428 14.1593 76.8595 9.1416 83.0469 9.1416Z" stroke="url(#paint5_linear_2512_1146)" stroke-width="1.5"/>
<path d="M81.683 18.3566C80.8442 19.0909 77.6985 24.5455 78.1179 24.965C78.5373 25.3846 83.885 21.7133 84.5141 21.0839C85.1433 20.4545 88.3938 15 87.9744 14.6853C87.555 14.3706 82.5219 17.6224 81.683 18.3566Z" fill="url(#paint6_linear_2512_1146)"/>
<path d="M78.0663 25.3397L78.576 24.7896V24.7896L78.0663 25.3397ZM88.0199 15.5434L88.5296 14.9932V14.9932L88.0199 15.5434ZM82.385 30.8572V31.6072H83.885V30.8572H83.135H82.385ZM83.885 28.2248C83.885 27.8106 83.5493 27.4748 83.135 27.4748C82.7208 27.4748 82.385 27.8106 82.385 28.2248H83.135H83.885ZM93.8554 21.1752H94.6054V19.6752H93.8554V20.4252V21.1752ZM91.0987 19.6752C90.6845 19.6752 90.3487 20.011 90.3487 20.4252C90.3487 20.8395 90.6845 21.1752 91.0987 21.1752V20.4252V19.6752ZM83.885 10.2858V9.53577H82.385V10.2858H83.135H83.885ZM82.385 12.9181C82.385 13.3323 82.7208 13.6681 83.135 13.6681C83.5493 13.6681 83.885 13.3323 83.885 12.9181H83.135H82.385ZM72.1084 19.6752H71.3584V21.1752H72.1084V20.4252V19.6752ZM74.8651 21.1752C75.2793 21.1752 75.6151 20.8395 75.6151 20.4252C75.6151 20.011 75.2793 19.6752 74.8651 19.6752V20.4252V21.1752ZM78.0663 25.3397L78.576 24.7896C78.7081 24.912 78.7561 25.0494 78.7737 25.1215C78.7916 25.1945 78.7904 25.2479 78.7898 25.2637C78.7886 25.2943 78.7848 25.29 78.8003 25.2322C78.8293 25.1242 78.8926 24.9491 78.9963 24.7083C79.2002 24.2349 79.5196 23.6005 79.8936 22.9253C80.2665 22.2522 80.6857 21.5532 81.0848 20.9515C81.4924 20.3371 81.8514 19.8665 82.1036 19.6183L81.5775 19.0837L81.0514 18.5492C80.6815 18.9133 80.2514 19.4944 79.8348 20.1223C79.4099 20.7629 78.9702 21.4969 78.5815 22.1984C78.194 22.8977 77.8493 23.5795 77.6186 24.115C77.5051 24.3787 77.4086 24.6312 77.3517 24.843C77.3242 24.945 77.2959 25.0736 77.2909 25.2062C77.288 25.2807 77.274 25.6281 77.5566 25.8899L78.0663 25.3397ZM81.5775 19.0837L82.1036 19.6183C82.3565 19.3693 82.8399 19.0113 83.4719 18.603C84.0908 18.2031 84.8109 17.7813 85.5053 17.4044C86.2015 17.0266 86.8579 16.7015 87.3502 16.4914C87.5999 16.3848 87.7854 16.3173 87.9035 16.2847C87.9658 16.2675 87.9784 16.2689 87.9573 16.2702C87.9465 16.2709 87.9006 16.2735 87.8354 16.2609C87.7741 16.2491 87.6391 16.213 87.5102 16.0936L88.0199 15.5434L88.5296 14.9932C88.381 14.8556 88.2175 14.807 88.1192 14.788C88.017 14.7683 87.9257 14.7692 87.8616 14.7733C87.7338 14.7814 87.6081 14.8102 87.5044 14.8388C87.2903 14.8979 87.033 14.9958 86.7613 15.1118C86.2106 15.3469 85.5093 15.6955 84.7898 16.0861C84.0683 16.4776 83.3145 16.9189 82.6579 17.3431C82.0143 17.7588 81.4206 18.1858 81.0514 18.5492L81.5775 19.0837ZM88.0199 15.5434L87.5102 16.0936C87.378 15.9712 87.3301 15.8337 87.3124 15.7616C87.2946 15.6886 87.2958 15.6352 87.2964 15.6194C87.2976 15.5888 87.3014 15.5931 87.2859 15.6509C87.2569 15.7589 87.1935 15.934 87.0899 16.1748C86.886 16.6482 86.5666 17.2827 86.1926 17.9578C85.8197 18.6309 85.4005 19.3299 85.0013 19.9316C84.5938 20.546 84.2348 21.0166 83.9826 21.2648L84.5086 21.7994L85.0347 22.3339C85.4046 21.9699 85.8348 21.3887 86.2513 20.7608C86.6763 20.1202 87.116 19.3863 87.5046 18.6848C87.8921 17.9854 88.2369 17.3036 88.4675 16.7681C88.5811 16.5044 88.6776 16.2519 88.7345 16.0401C88.7619 15.9381 88.7902 15.8095 88.7953 15.6769C88.7982 15.6024 88.8122 15.2551 88.5296 14.9932L88.0199 15.5434ZM84.5086 21.7994L83.9826 21.2648C83.7296 21.5138 83.2463 21.8718 82.6143 22.2801C81.9954 22.68 81.2753 23.1019 80.5809 23.4787C79.8847 23.8566 79.2282 24.1816 78.736 24.3917C78.4863 24.4983 78.3007 24.5658 78.1827 24.5984C78.1203 24.6156 78.1078 24.6142 78.1289 24.6129C78.1397 24.6122 78.1855 24.6096 78.2508 24.6222C78.3121 24.634 78.4471 24.6701 78.576 24.7896L78.0663 25.3397L77.5566 25.8899C77.7052 26.0276 77.8687 26.0761 77.9669 26.0951C78.0692 26.1148 78.1604 26.1139 78.2246 26.1098C78.3523 26.1017 78.4781 26.0729 78.5818 26.0443C78.7958 25.9853 79.0531 25.8873 79.3249 25.7713C79.8756 25.5362 80.5768 25.1876 81.2964 24.797C82.0179 24.4055 82.7717 23.9643 83.4283 23.54C84.0718 23.1243 84.6656 22.6973 85.0347 22.3339L84.5086 21.7994ZM81.5775 19.0837L81.0678 19.6339L83.9989 22.3495L84.5086 21.7994L85.0184 21.2492L82.0873 18.5336L81.5775 19.0837ZM83.135 30.8572H83.885V28.2248H83.135H82.385V30.8572H83.135ZM93.8554 20.4252V19.6752H91.0987V20.4252V21.1752H93.8554V20.4252ZM83.135 10.2858H82.385V12.9181H83.135H83.885V10.2858H83.135ZM72.1084 20.4252V21.1752H74.8651V20.4252V19.6752H72.1084V20.4252Z" fill="url(#paint7_linear_2512_1146)"/>
<defs>
<linearGradient id="paint0_linear_2512_1146" x1="79.9007" y1="-1.04895" x2="6.17367" y2="40.0468" gradientUnits="userSpaceOnUse">
<stop stop-color="#FFB462"/>
<stop offset="1" stop-color="#FF6167"/>
</linearGradient>
<linearGradient id="paint1_linear_2512_1146" x1="79.9007" y1="-1.04895" x2="6.17367" y2="40.0468" gradientUnits="userSpaceOnUse">
<stop stop-color="#FFB462"/>
<stop offset="1" stop-color="#FF6167"/>
</linearGradient>
<linearGradient id="paint2_linear_2512_1146" x1="79.9007" y1="-1.04895" x2="6.17367" y2="40.0468" gradientUnits="userSpaceOnUse">
<stop stop-color="#FFB462"/>
<stop offset="1" stop-color="#FF6167"/>
</linearGradient>
<linearGradient id="paint3_linear_2512_1146" x1="79.9007" y1="-1.04895" x2="6.17367" y2="40.0468" gradientUnits="userSpaceOnUse">
<stop stop-color="#FFB462"/>
<stop offset="1" stop-color="#FF6167"/>
</linearGradient>
<linearGradient id="paint4_linear_2512_1146" x1="79.9007" y1="-1.04895" x2="6.17367" y2="40.0468" gradientUnits="userSpaceOnUse">
<stop stop-color="#FFB462"/>
<stop offset="1" stop-color="#FF6167"/>
</linearGradient>
<linearGradient id="paint5_linear_2512_1146" x1="98.5652" y1="9.54545" x2="75.9081" y2="31.5651" gradientUnits="userSpaceOnUse">
<stop stop-color="#FFB462"/>
<stop offset="1" stop-color="#FF6167"/>
</linearGradient>
<linearGradient id="paint6_linear_2512_1146" x1="82.6267" y1="19.0909" x2="71.5064" y2="34.9262" gradientUnits="userSpaceOnUse">
<stop stop-color="#FFB462"/>
<stop offset="1" stop-color="#FF6167"/>
</linearGradient>
<linearGradient id="paint7_linear_2512_1146" x1="98.3477" y1="12.3332" x2="78.2102" y2="31.7836" gradientUnits="userSpaceOnUse">
<stop stop-color="#FFB462"/>
<stop offset="1" stop-color="#FF6167"/>
</linearGradient>
</defs>
</svg>
